# xmcd
#
# Track frame offsets:
#	150
#	15742
#	28710
#	44531
#	52404
#	67309
#	79504
#	91819
#	102262
#	114902
#	131242
#	141460
#	158572
#	170861
#	184076
#	198964
#	212614
#	224645
#	239225
#	255525
#	270683
#	286908
#
# Disc length: 4052 seconds
#
# Revision: 0
# Processed by: cddbd v1.5.1PL2 Copyright (c) Steve Scherf et al.
# Submitted via: dBpowerAMP V4.0
#
DISCID=590fd216
DTITLE=Diversos - Maranhão
DYEAR=1900
DGENRE=Country
TTITLE0=01-Boi de Maracanã
TTITLE1=02-boi de Santa Fé
TTITLE2=03-Boi de Axixá
TTITLE3=04-Boi da Fé em Deus
TTITLE4=05-Boi de Presidente Juscelino
TTITLE5=06-Boi da Floresta
TTITLE6=07-Boizinho Barrica
TTITLE7=08-Boi Maioba
TTITLE8=09-Boi Guiomarães
TTITLE9=10-Boi de Morros
TTITLE10=11-Cacuriã de Dona Teté
TTITLE11=12-Boi de Ribamar
TTITLE12=13-Boi da Mocidade
TTITLE13=14-Tambor de Mestre Felipe
TTITLE14=15-Boi Pirilampo
TTITLE15=16-Boi de Humberto de Campos
TTITLE16=17-Boi de Mina Rodrigues
TTITLE17=18-Boi da Madre de Deus
TTITLE18=19-Boi de Iguaíba
TTITLE19=20-Boizinho Barrica
TTITLE20=21-Boi de Ribamar
TTITLE21=22-Boi de Maracvanã
EXTD=
EXTT0=
EXTT1=
EXTT2=
EXTT3=
EXTT4=
EXTT5=
EXTT6=
EXTT7=
EXTT8=
EXTT9=
EXTT10=
EXTT11=
EXTT12=
EXTT13=
EXTT14=
EXTT15=
EXTT16=
EXTT17=
EXTT18=
EXTT19=
EXTT20=
EXTT21=
PLAYORDER=
